<svg height="480pt" viewBox="0 -6 480 480" width="480pt" xmlns="http://www.w3.org/2000/svg" xmlns:xlink="http://www.w3.org/1999/xlink"><linearGradient id="lg1"><stop offset="0" stop-color="#00efd1"/><stop offset="1" stop-color="#00acea"/></linearGradient><linearGradient id="linear0" gradientUnits="userSpaceOnUse" x1="240" x2="240" xlink:href="#lg1" y1="22.670179" y2="449.768179"/><linearGradient id="linear1" gradientUnits="userSpaceOnUse" x1="239.999" x2="239.999" xlink:href="#lg1" y1="22.670179" y2="449.768179"/><path d="m473.613281 151.898438h-187.613281v-43.976563c0-32.453125-10.460938-64.039063-29.835938-90.074219l-11.492187-15.449218c-1.117187-1.507813-2.882813-2.398438-4.761719-2.398438s-3.648437.890625-4.765625 2.398438l-11.355469 15.449218c-19.359374 26.039063-29.804687 57.625-29.789062 90.074219v43.976563h-187.613281c-3.449219.113281-6.230469 2.863281-6.386719 6.308593v303.59375c.171875 3.40625 2.976562 6.082031 6.386719 6.097657h467.226562c3.410157-.015626 6.214844-2.691407 6.386719-6.097657v-303.601562c-.160156-3.445313-2.941406-6.1875-6.386719-6.300781zm-187.613281 18.316406c21 12 29.933594 27.527344 31.070312 53.554687h-31.070312zm-30.757812 116.546875.011718.5c-.035156 14.964843-11.511718 27.046875-15.386718 28.859375-3.886719-1.867188-15.121094-13.824219-15.121094-28.78125 0-2.078125.132812-6.441406.316406-9.441406h29.9375c.070312 2 .152344 4.742187.242188 8.863281zm-61.242188-62.863281h-31.46875c.867188-23 7.46875-40.90625 31.46875-54.203126zm71 42h-50v-11h50zm-104.992188-80.761719c-6.535156 11.457031-9.582031 25.664062-9.582031 44.554687 0 1.625.628907 3.183594 1.757813 4.347656 1.113281 1.152344 2.636718 1.824219 4.242187 1.859376h37.574219v12.808593c0 3.3125 2.242188 6.191407 5.554688 6.191407h3.445312v16.589843c0 3.316407 2.253906 6.410157 5.566406 6.410157h4.480469c-.242187 4-.300781 9.324218-.300781 9.40625 0 20.46875 15.273437 38.714843 25.179687 40.695312.394531.003906.789063-.03125 1.175781-.101562h1.5c.390626.039062.785157.039062 1.175782 0 5.894531-1.179688 12.160156-7.660157 16.179687-13.378907 5.742188-8.003906 8.898438-17.570312 9.042969-27.417969v-.132812l.113281-.460938c-.078125-3.644531-.027343-6.605468-.109375-8.605468h4.429688c3.3125 0 5.566406-3.101563 5.566406-6.410156v-16.59375h3.378906c3.3125 0 5.621094-2.878907 5.621094-6.191407v-12.9375h37.386719c3.363281-.0625 6.066406-2.789062 6.097656-6.152343 0-30.773438-8.886719-50.714844-30.148437-65.714844h159.511718l-218.847656 204.507812-218.875-204.511718h158.605469c-8.082031 5.515624-14.820313 12.773437-19.722657 21.238281zm-1.324218 124.386719-146.683594 138.101562v-275.15625zm9.175781 8.257812 68.039063 63.554688c2.3125 2.148437 5.890624 2.140624 8.195312-.015626l70.625-65.957031 144.382812 140.535157h-437.898437zm156.027344-10.671875 144.113281-134.667969v274.898438zm-90.488281-282.0625 6.679687-9.050781 6.542969 9.050781c17.804687 23.960937 27.40625 53.023437 27.378906 82.875v134.976563h-68v-134.976563c-.019531-29.855469 9.589844-58.917969 27.398438-82.875zm0 0" fill="url(#linear0)"/><path d="m240 156.898438h.007812c14.554688 0 26.355469-11.800782 26.355469-26.359376-.003906-14.554687-11.804687-26.355468-26.359375-26.355468-14.558594 0-26.359375 11.800781-26.359375 26.355468 0 14.558594 11.796875 26.359376 26.355469 26.359376zm0-40.519532c7.929688 0 14.359375 6.425782 14.359375 14.355469s-6.429687 14.359375-14.359375 14.359375-14.355469-6.429688-14.355469-14.359375c.007813-7.921875 6.429688-14.347656 14.355469-14.355469zm0 0" fill="url(#linear1)"/></svg>